# xmcd
#
# Track frame offsets: 
#        150
#        6036
#        26754
#        45899
#        62721
#        84933
#        95449
#        117276
#        137972
#        157467
#        178848
#        184629
#        205477
#        222003
#        237031
#        256307
#        277872
#        298491
#        315191
#
# Disc length: 4208 seconds
#
# Revision: 0
# Processed by: cddbd v1.5.2PL0 Copyright (c) Steve Scherf et al.
# Submitted via: ExactAudioCopy v1.0b3
#
DISCID=0c106e13
DTITLE=Mars Ill - Pro Pain (2004)
DYEAR=2004
DGENRE=Hip Hop
TTITLE0=Pro*Pain Intro
TTITLE1=Say So
TTITLE2=Sound Off
TTITLE3=Dog Ear Page
TTITLE4=More
TTITLE5=Just The Two Of Us
TTITLE6=Stand Back And Watch
TTITLE7=Wicked Ways
TTITLE8=All Out
TTITLE9=Saturday Night Special
TTITLE10=Higher
TTITLE11=Moment
TTITLE12=Effortless
TTITLE13=Loud!
TTITLE14=Write Of Passage
TTITLE15=When Heaven Scrapes The Pavement
TTITLE16=I Is
TTITLE17=We Out
TTITLE18=Data
EXTD=
EXTT0=
EXTT1=
EXTT2=
EXTT3=
EXTT4=
EXTT5=
EXTT6=
EXTT7=
EXTT8=
EXTT9=
EXTT10=
EXTT11=
EXTT12=
EXTT13=
EXTT14=
EXTT15=
EXTT16=
EXTT17=
EXTT18=
PLAYORDER=
